<svg id="Layer_1" data-name="Layer 1" xmlns="http://www.w3.org/2000/svg" viewBox="0 0 1000 1000"><defs><style>.cls-1{fill:#d725bb;}</style></defs><title>Humidity</title><path class="cls-1" d="M668.79,830.57a17.87,17.87,0,0,0-13,3.9c-22.66,18.4-111.09,85.12-201.54,85.12C297.48,919.59,170,792.08,170,635.35a284.78,284.78,0,0,1,32.8-132.68l225.59-407a29.55,29.55,0,0,1,51.68,0l100.4,181.15a17.49,17.49,0,0,0,17.24,8.91h0a17.49,17.49,0,0,0,13.37-25.87L510.66,78.67a64.53,64.53,0,0,0-112.9,0L172.08,485.86l-.16.29a319.27,319.27,0,0,0,508,374.94l.58-.57a17.56,17.56,0,0,0-10.73-29.86Z"/><path class="cls-1" d="M575.14,466q-23.75,0-39.7-11.32t-16-38.77v-52.7q0-27.45,16-38.77t39.7-11.32a78.55,78.55,0,0,1,28.2,4.82,41.61,41.61,0,0,1,20,15.77q7.41,10.95,7.42,29.5v52.7q0,18.18-7.42,29.31a41.15,41.15,0,0,1-20,15.95A78.33,78.33,0,0,1,575.14,466Zm0-32.28q8.54,0,13.54-4.27t5-13.54v-52.7q0-9.27-5-13.54t-13.54-4.27q-8.53,0-13.36,4.27T557,363.21v52.7q0,9.27,4.82,13.54T575.14,433.72ZM597,601.44q-9.27,0-15-6.31t-5.76-13.36a15.74,15.74,0,0,1,1.86-7L708.35,307.18q4.46-9.27,15.59-9.27a24.14,24.14,0,0,1,14.84,5.38,17.11,17.11,0,0,1,7.05,14.28,15.54,15.54,0,0,1-1.49,7.05L613.73,592.16a14.61,14.61,0,0,1-6.68,6.68A20.91,20.91,0,0,1,597,601.44Zm148.43-16q-23.76,0-39.71-11.32t-16-38.77V482.7q0-27.46,16-38.78t39.71-11.32a78.37,78.37,0,0,1,28.2,4.83,41.47,41.47,0,0,1,20,15.77q7.42,10.95,7.43,29.5v52.69q0,18.18-7.43,29.31a41.2,41.2,0,0,1-20,16A78.59,78.59,0,0,1,745.46,585.48Zm0-32.28q8.52,0,13.54-4.27t5-13.54V482.7q0-9.27-5-13.55t-13.54-4.26q-8.55,0-13.36,4.26t-4.83,13.55v52.69q0,9.27,4.83,13.54T745.46,553.2Z"/><path class="cls-1" d="M442.52,734.4H417a17.11,17.11,0,1,1,0-34.21h25.55a41.82,41.82,0,0,0,29.79-12.34l27.13-27.13a76.34,76.34,0,0,1,108,0l.86.86a42.12,42.12,0,0,0,59.58,0,76.42,76.42,0,0,1,108,0L801.2,687A41.89,41.89,0,0,0,831,699.33h16.92a17.11,17.11,0,1,1,0,34.21H831a75.84,75.84,0,0,1-54-22.36l-25.4-25.4a42.18,42.18,0,0,0-59.57,0,76.35,76.35,0,0,1-108,0l-.85-.86a42.14,42.14,0,0,0-59.59,0L496.51,712A75.86,75.86,0,0,1,442.52,734.4Z"/><path class="cls-1" d="M442.52,832.27H417a17.11,17.11,0,1,1,0-34.22h25.55a41.82,41.82,0,0,0,29.79-12.34l27.13-27.12a76.34,76.34,0,0,1,108,0l.86.85a42.12,42.12,0,0,0,59.58,0,76.43,76.43,0,0,1,108,0l25.4,25.4A41.85,41.85,0,0,0,831,797.19h16.92a17.11,17.11,0,1,1,0,34.21H831A75.84,75.84,0,0,1,777,809l-25.4-25.4a42.18,42.18,0,0,0-59.57,0,76.35,76.35,0,0,1-108,0l-.85-.85a42.13,42.13,0,0,0-59.59,0l-27.12,27.13A75.86,75.86,0,0,1,442.52,832.27Z"/></svg>