<?xml version="1.0" encoding="utf-8"?>
<!-- Generator: Adobe Illustrator 24.0.0, SVG Export Plug-In . SVG Version: 6.00 Build 0)  -->
<svg version="1.1" id="Layer_1" xmlns="http://www.w3.org/2000/svg" xmlns:xlink="http://www.w3.org/1999/xlink" x="0px" y="0px"
	 viewBox="0 0 1000 1000" style="enable-background:new 0 0 1000 1000;" xml:space="preserve">
<style type="text/css">
	.st0{fill:none;stroke:#00F2C3;stroke-width:35;stroke-linecap:round;stroke-miterlimit:10;}
	.st1{fill:none;stroke:#00F2C3;stroke-width:35;stroke-linecap:round;stroke-linejoin:round;}
</style>
<path class="st0" d="M283.1,461.1c0-114.7,97.1-207.6,216.9-207.6s216.9,93,216.9,207.6"/>
<path class="st0" d="M412,749.1c0-36.3-29-105-68.5-144.3c-37.4-37.3-60.4-87.9-60.4-143.7"/>
<path class="st0" d="M588,749.1c0-36.3,29-105,68.5-144.3c37.4-37.3,60.4-87.9,60.4-143.7"/>
<line class="st0" x1="412" y1="814.2" x2="588" y2="814.2"/>
<line class="st0" x1="437" y1="873" x2="563" y2="873"/>
<line class="st0" x1="462.1" y1="931.8" x2="537.8" y2="931.8"/>
<line class="st0" x1="500" y1="87.3" x2="500" y2="171.2"/>
<line class="st0" x1="775.2" y1="201.4" x2="716" y2="260.7"/>
<line class="st0" x1="889" y1="476.8" x2="805.2" y2="476.7"/>
<line class="st0" x1="111" y1="475.1" x2="194.8" y2="475.4"/>
<line class="st0" x1="226" y1="200.2" x2="285" y2="259.7"/>
<polyline class="st1" points="375,489.7 427.8,489.7 480.6,382.4 525.5,572.3 557.6,489.7 625,489.7 "/>
</svg>
